:version 1.10
:name ASF
:units
  mass 1
  length 1
  angle deg
:documentation
  ASF file generated by Kaydara
:root
  axis xyz
  order  tx ty tz rx ry rz
  position 0 0 0
  orientation 0 0 0
:bonedata
  begin
    id 1
    name RightUpLegDummy
    direction -1 2.30186e-007 8.31532e-007
    length 4.46685
    axis 0 0 0 xyz
  end
  begin
    id 2
    name RightUpLeg
    direction -2.30187e-007 -1 1.24343e-010
    length 16.4045
    axis -3.49089 -0.000906625 0.000286804 xyz
    dof rx ry rz
  end
  begin
    id 3
    name RightLeg
    direction -2.30181e-007 -1 -4.17157e-009
    length 17.5097
    axis 3.68512 0.0193738 -0.131023 xyz
    dof rx ry rz
  end
  begin
    id 4
    name RightFoot
    direction 8.31421e-007 -4.51202e-011 1
    length 6.49508
    axis 4.81691e-005 -0.120479 -0.188788 xyz
    dof rx ry rz
  end
  begin
    id 5
    name RightToes
    direction 0.00124746 -0.014064 0.9999
    length 3.85082
    axis 0.000481921 0.542163 -0.142578 xyz
    dof rx ry rz
  end
  begin
    id 6
    name SpineDummy
    direction 0.0717043 0.9409 -0.331007
    length 10.0032
    axis 0 0 0 xyz
  end
  begin
    id 7
    name Spine
    direction 2.30186e-007 1 4.58806e-011
    length 9.84055
    axis -0.001389 0.000121418 2.40972e-006 xyz
    dof rx ry rz
  end
  begin
    id 8
    name Spine1
    direction 0 0 0
    length 0
    axis -0.001389 0.000121451 1.30017e-006 xyz
    dof rx ry rz
  end
  begin
    id 9
    name HEadDummy
    direction -0.00347485 0.950688 -0.310128
    length 8.00997
    axis -0.001389 0.000121451 1.30017e-006 xyz
  end
  begin
    id 10
    name HEad
    direction -0.0222688 0.980941 0.193023
    length 5.12695
    axis -0.001389 0.000121451 1.30017e-006 xyz
    dof rx ry rz
  end
  begin
    id 11
    name LeftShoulder1Dummy
    direction 0.988871 0.146793 -0.0242004
    length 3.5792
    axis -0.001389 0.000121451 1.30017e-006 xyz
  end
  begin
    id 12
    name LeftShoulder1
    direction 0.993832 0.108932 0.020779
    length 4.16823
    axis -0.001389 0.000121451 1.30017e-006 xyz
    dof rx ry rz
  end
  begin
    id 13
    name LeftArm
    direction 1 3.44807e-006 -8.31404e-007
    length 9.91437
    axis -23.1894 0.134784 0.967509 xyz
    dof rx ry rz
  end
  begin
    id 14
    name LeftForeArm
    direction 1 3.44842e-006 -8.31581e-007
    length 9.08575
    axis -9.91835 -0.06569 -0.177793 xyz
    dof rx ry rz
  end
  begin
    id 15
    name LeftHand
    direction 0.992938 -0.0411636 0.11126
    length 5.32135
    axis -0.00960232 -0.00340091 0.185173 xyz
    dof rx ry rz
  end
  begin
    id 16
    name RightShoulderDummy
    direction -0.988871 0.146793 -0.0241962
    length 3.5792
    axis -0.001389 0.000121451 1.30017e-006 xyz
  end
  begin
    id 17
    name RightShoulder
    direction -0.993832 0.108933 0.0207785
    length 4.16823
    axis 0.215806 0.000203643 -0.0068026 xyz
    dof rx ry rz
  end
  begin
    id 18
    name RightArm
    direction -1 3.90912e-006 8.31284e-007
    length 9.91437
    axis -23.2009 -0.134239 -0.964101 xyz
    dof rx ry rz
  end
  begin
    id 19
    name RightForeArm
    direction -1 3.90882e-006 8.31502e-007
    length 9.08575
    axis -9.92322 0.0658061 0.178867 xyz
    dof rx ry rz
  end
  begin
    id 20
    name RightHand
    direction -0.992843 -0.0414603 0.112003
    length 5.28593
    axis -0.00960638 0.00330671 -0.185228 xyz
    dof rx ry rz
  end
  begin
    id 21
    name LeftUpLegDummy
    direction 1 -2.30186e-007 -8.31532e-007
    length 4.46685
    axis 0 0 0 xyz
  end
  begin
    id 22
    name LeftUpLeg
    direction -2.30187e-007 -1 6.00931e-010
    length 16.4045
    axis -3.48766 0.00143442 -0.000524262 xyz
    dof rx ry rz
  end
  begin
    id 23
    name LeftLeg
    direction -2.30187e-007 -1 1.6669e-009
    length 17.5097
    axis 3.68178 -0.00654042 -0.000285133 xyz
    dof rx ry rz
  end
  begin
    id 24
    name LeftFoot
    direction 8.31532e-007 -4.54478e-011 1
    length 6.49508
    axis 1.87233e-006 4.66016e-005 -8.6538e-006 xyz
    dof rx ry rz
  end
  begin
    id 25
    name LeftToes
    direction 0.00818058 -0.00485161 0.999955
    length 3.85048
    axis 1.06247e-005 4.65869e-005 -8.65513e-006 xyz
    dof rx ry rz
  end
:hierarchy
  begin
    root RightUpLegDummy SpineDummy LeftUpLegDummy
    RightUpLegDummy RightUpLeg
    RightUpLeg RightLeg
    RightLeg RightFoot
    RightFoot RightToes
    SpineDummy Spine
    Spine Spine1
    Spine1 HEadDummy LeftShoulder1Dummy RightShoulderDummy
    HEadDummy HEad
    LeftShoulder1Dummy LeftShoulder1
    LeftShoulder1 LeftArm
    LeftArm LeftForeArm
    LeftForeArm LeftHand
    RightShoulderDummy RightShoulder
    RightShoulder RightArm
    RightArm RightForeArm
    RightForeArm RightHand
    LeftUpLegDummy LeftUpLeg
    LeftUpLeg LeftLeg
    LeftLeg LeftFoot
    LeftFoot LeftToes
  end

:SAMPLES-PER-SECOND 30
:FULLY-SPECIFIED
:DEGREES
1
root  -69.7459 31.3733 -57.6471 12.0664 61.4288 -7.5313
RightUpLeg  -39.402 -9.07746 -7.42931
RightLeg  54.4041 7.44967 8.95201
RightFoot  -8.24536 -0.118726 -1.26961
RightToes  -56.1852 -0.358892 -0.387199
Spine  12.4854 -1.07875 -2.01495
Spine1  21.6199 -2.11999 -3.14937
HEad  17.0778 -5.01463 19.1627
LeftShoulder1  0 -2.42657e-020 -4.95415e-022
LeftArm  -49.5163 -23.3688 -55.7636
LeftForeArm  29.8568 -47.9679 -11.2972
LeftHand  1.29066 -7.63844 -19.5415
RightShoulder  0 2.42657e-020 1.07489e-018
RightArm  -36.2023 8.93636 82.7264
RightForeArm  33.0592 39.7535 8.43672
RightHand  -0.708718 21.1097 -3.43324
LeftUpLeg  -42.6427 13.3746 10.403
LeftLeg  46.9309 -6.34002 -5.93713
LeftFoot  -7.60886 0.0423909 0.637464
LeftToes  -36.5253 8.63562e-007 1.17448e-007
2
root  -70.0149 30.5743 -57.5355 11.1826 59.6075 -9.22814
RightUpLeg  -41.2212 -7.53045 -12.1255
RightLeg  50.6139 2.49121 2.61439
RightFoot  -10.3577 -0.033573 0.00712922
RightToes  -47.5231 -0.281194 -0.353558
Spine  14.0473 -1.13955 -1.62125
Spine1  23.5949 -2.60117 -2.09765
HEad  17.0576 -3.8202 16.9422
LeftShoulder1  0 -2.42657e-020 -4.95415e-022
LeftArm  -43.3417 -28.7906 -60.6503
LeftForeArm  35.3315 -42.6493 -9.34869
LeftHand  0.857802 -9.60396 -10.5618
RightShoulder  0 2.42657e-020 1.07489e-018
RightArm  -33.8822 15.3244 83.6734
RightForeArm  31.1012 37.6798 7.82815
RightHand  -0.515118 21.1008 -2.39594
LeftUpLeg  -46.4832 14.6535 11.7419
LeftLeg  53.7349 -4.88414 -5.81303
LeftFoot  -10.3989 0.047524 0.522241
LeftToes  -36.5605 8.63562e-007 1.17448e-007
3
root  -70.2692 29.6894 -57.2925 11.2731 57.3725 -10.0641
RightUpLeg  -43.3255 -6.38247 -16.6285
RightLeg  46.3931 -3.55372 -3.30988
RightFoot  -10.6502 0.137023 1.84765
RightToes  -34.2041 -0.173917 -0.280098
Spine  15.4256 -0.977022 -1.43883
Spine1  25.1112 -2.95908 -0.917797
HEad  16.4883 -3.07157 15.0186
LeftShoulder1  0 -2.42657e-020 -4.95415e-022
LeftArm  -37.6896 -34.0164 -66.4572
LeftForeArm  42.8738 -34.3416 -6.90106
LeftHand  0.484815 -11.4762 -5.195
RightShoulder  0 2.42657e-020 1.07489e-018
RightArm  -32.0277 21.1788 85.048
RightForeArm  29.8837 34.7552 7.02606
RightHand  -0.246019 21.1516 -0.94789
LeftUpLeg  -49.7878 16.453 13.0427
LeftLeg  59.9502 -3.8847 -5.80406
LeftFoot  -13.0244 0.0291138 0.255037
LeftToes  -37.7714 8.63562e-007 1.17448e-007
4
root  -70.5947 28.8008 -56.9396 12.6743 55.2086 -9.58776
RightUpLeg  -46.3948 -6.66471 -20.4968
RightLeg  43.4823 -7.63463 -6.34178
RightFoot  -7.34485 0.140843 2.5719
RightToes  -26.4936 -0.120536 -0.226872
Spine  16.4998 -0.565107 -1.51493
Spine1  26.2033 -2.76839 -0.277159
HEad  15.6544 -2.76213 13.6187
LeftShoulder1  0 -2.42657e-020 -4.95415e-022
LeftArm  -33.8997 -39.2184 -71.6962
LeftForeArm  46.8051 -25.0917 -4.70873
LeftHand  0.540458 -11.6154 -5.68313
RightShoulder  0 2.42657e-020 1.07489e-018
RightArm  -32.2511 26.5681 87.0513
RightForeArm  28.0364 30.4503 5.946
RightHand  0.306014 21.7646 1.96224
LeftUpLeg  -52.5063 18.5913 13.7656
LeftLeg  64.8159 -3.30849 -5.98924
LeftFoot  -15.2257 -0.00564292 -0.0422285
LeftToes  -38.972 8.63562e-007 1.17448e-007
5
root  -70.9948 28.0532 -56.4604 15.2242 53.7838 -7.68436
RightUpLeg  -49.6613 -9.97008 -22.7769
RightLeg  41.6996 -6.88064 -5.37325
RightFoot  -4.9778 0.0876339 2.39379
RightToes  -32.4361 -0.161051 -0.268536
Spine  17.2169 -0.079172 -1.80335
Spine1  27.0352 -1.96255 -0.636003
HEad  14.0206 -2.3653 12.1585
LeftShoulder1  0 -2.42657e-020 -4.95415e-022
LeftArm  -32.5014 -43.3518 -75.8868
LeftForeArm  47.0459 -18.3866 -3.33389
LeftHand  0.996086 -11.5794 -10.1761
RightShoulder  0 2.42657e-020 1.07489e-018
RightArm  -35.2019 31.6186 89.4932
RightForeArm  27.6188 24.6809 4.64212
RightHand  0.781054 21.6373 4.45684
LeftUpLeg  -54.4152 20.5701 13.6542
LeftLeg  67.5853 -3.22445 -6.56489
LeftFoot  -16.3573 -0.0270989 -0.188559
LeftToes  -41.5022 8.63562e-007 1.17448e-007
6
root  -71.4764 27.5887 -55.7824 18.1031 53.2312 -5.13834
RightUpLeg  -52.3015 -15.1742 -22.4909
RightLeg  41.2945 -3.4 -2.64027
RightFoot  -6.02522 0.101382 2.30401
RightToes  -34.9249 -0.179263 -0.284696
Spine  17.5078 0.464193 -1.84171
Spine1  27.3877 -0.697331 -0.97208
HEad  12.7718 -2.71759 10.3708
LeftShoulder1  0 -2.42657e-020 -4.95415e-022
LeftArm  -29.1936 -44.9224 -80.5146
LeftForeArm  49.7947 -13.8967 -2.4723
LeftHand  1.47733 -12.2424 -14.0882
RightShoulder  0 2.42657e-020 1.07489e-018
RightArm  -41.4287 35.123 90.6422
RightForeArm  29.3627 19.0077 3.47622
RightHand  1.10009 21.4314 6.18037
LeftUpLeg  -55.2743 21.7381 13.5536
LeftLeg  68.1955 -3.50485 -7.32259
LeftFoot  -16.0506 -0.0352051 -0.249706
LeftToes  -44.054 8.63562e-007 1.17448e-007
7
root  -72.061 27.4271 -54.9503 22.0322 53.7668 -1.60239
RightUpLeg  -54.2327 -21.6053 -20.6806
RightLeg  41.856 -1.31326 -1.05817
RightFoot  0.315415 -0.00423626 1.91227
RightToes  -48.8104 -0.292407 -0.359295
Spine  17.2057 0.870255 -1.56481
Spine1  26.9181 0.46681 -0.850501
HEad  11.7568 -4.45224 9.0495
LeftShoulder1  0 -2.42657e-020 -4.95415e-022
LeftArm  -24.6989 -43.0054 -85.6154
LeftForeArm  54.6939 -12.9547 -2.28837
LeftHand  1.05408 -12.1339 -10.2688
RightShoulder  0 2.42657e-020 1.07489e-018
RightArm  -49.4316 36.3824 89.4167
RightForeArm  31.5559 14.8004 2.66448
RightHand  1.1561 21.0676 6.5834
LeftUpLeg  -55.6296 22.1355 12.8217
LeftLeg  66.2389 -4.05596 -7.76947
LeftFoot  -14.4776 -0.0405783 -0.31948
LeftToes  -43.6434 8.63562e-007 1.17448e-007
8
root  -72.6684 27.5827 -53.9924 25.8372 54.4553 1.99675
RightUpLeg  -56.6561 -27.4459 -18.2578
RightLeg  42.8595 0.425211 0.318316
RightFoot  9.14713 -0.125523 1.94646
RightToes  -53.7729 -0.336757 -0.379017
Spine  16.8518 1.26865 -1.17039
Spine1  26.4916 1.47383 -0.323891
HEad  10.5944 -6.34721 7.47487
LeftShoulder1  0 -2.42657e-020 -4.95415e-022
LeftArm  -22.2814 -39.5066 -88.881
LeftForeArm  56.0775 -14.1506 -2.50807
LeftHand  0.81811 -12.3033 -7.95391
RightShoulder  0 2.42657e-020 1.07489e-018
RightArm  -56.1393 35.8503 86.9266
RightForeArm  32.7843 12.6506 2.26272
RightHand  0.965926 20.4502 5.72292
LeftUpLeg  -54.5377 21.4006 12.5238
LeftLeg  61.9814 -4.66272 -7.50924
LeftFoot  -11.5439 -0.0674932 -0.667712
LeftToes  -45.9522 8.63562e-007 1.17448e-007
9
root  -73.2617 27.9898 -52.9037 28.1925 55.0436 3.98883
RightUpLeg  -60.2105 -32.3957 -13.7154
RightLeg  45.6093 5.48366 4.87247
RightFoot  10.5195 -0.245815 3.04706
RightToes  -53.948 -0.338352 -0.379642
Spine  16.3386 1.64977 -0.334237
Spine1  25.9569 2.46011 0.597103
HEad  9.61329 -7.24641 5.21864
LeftShoulder1  0 -2.42657e-020 -4.95415e-022
LeftArm  -20.979 -34.4932 -89.7565
LeftForeArm  51.7474 -17.1497 -3.08564
LeftHand  0.991808 -12.6988 -9.27046
RightShoulder  0 2.42657e-020 1.07489e-018
RightArm  -60.1591 33.9737 84.2864
RightForeArm  30.4991 12.2154 2.18403
RightHand  0.685429 19.5581 4.34674
LeftUpLeg  -52.2489 20.8744 13.2285
LeftLeg  56.1688 -5.20759 -6.75193
LeftFoot  -7.74888 -0.0767027 -1.13253
LeftToes  -47.3032 8.63562e-007 1.17448e-007
10
root  -73.8328 28.5621 -51.7324 28.8349 55.3778 3.8805
RightUpLeg  -61.9533 -33.6259 -9.61503
RightLeg  46.6426 6.4712 5.95677
RightFoot  9.52163 -0.216181 2.97261
RightToes  -53.5525 -0.339301 -0.379829
Spine  15.5538 1.95088 0.952616
Spine1  25.2133 3.37066 1.78951
HEad  9.78024 -6.67211 2.20488
LeftShoulder1  0 -2.42657e-020 -4.95415e-022
LeftArm  -22.4544 -28.753 -89.6122
LeftForeArm  48.1672 -20.2899 -3.70905
LeftHand  1.18649 -13.1267 -10.6604
RightShoulder  0 2.42657e-020 1.07489e-018
RightArm  -64.2986 31.6033 82.3026
RightForeArm  27.8727 12.8698 2.30618
RightHand  0.787389 19.5371 4.94272
LeftUpLeg  -49.3515 21.3345 14.7438
LeftLeg  49.5523 -5.39726 -5.54555
LeftFoot  -2.8794 -0.0419075 -1.66733
LeftToes  -47.8668 8.63562e-007 1.17448e-007
